<?xml version="1.0" encoding="UTF-8"?>
<svg id="Livello_1" data-name="Livello 1" xmlns="http://www.w3.org/2000/svg" version="1.1" viewBox="0 0 800 800">
  <defs>
    <style>
      .cls-1 {
        fill: #fff;
        stroke-width: 0px;
      }
    </style>
  </defs>
  <path class="cls-1" d="M152.5,152.5c19.5-19.5,51.2-19.5,70.7,0l176.8,176.8,176.8-176.8c19.9-19.2,51.5-18.6,70.7,1.2,18.7,19.4,18.7,50.1,0,69.5l-176.8,176.8,176.8,176.8c19.2,19.9,18.6,51.5-1.2,70.7-19.4,18.7-50.1,18.7-69.5,0l-176.8-176.8-176.8,176.8c-19.9,19.2-51.5,18.6-70.7-1.2-18.7-19.4-18.7-50.1,0-69.5l176.8-176.8-176.8-176.8c-19.5-19.5-19.5-51.2,0-70.7h0Z"/>
</svg>