<?xml version="1.0" encoding="UTF-8"?>
<svg xmlns="http://www.w3.org/2000/svg" version="1.1" viewBox="0 0 800 800">
  <defs>
    <style>
      .cls-1 {
        font-family: Articulate-Bold, Articulate;
        font-size: 150px;
        font-weight: 700;
      }

      .cls-1, .cls-2, .cls-3 {
        fill: #0b6031;
      }

      .cls-2, .cls-3 {
        stroke: #92a59a;
        stroke-miterlimit: 10;
      }

      .cls-3 {
        fill-rule: evenodd;
      }
    </style>
  </defs>
  <!-- Generator: Adobe Illustrator 28.7.4, SVG Export Plug-In . SVG Version: 1.2.0 Build 166)  -->
  <g>
    <g id="Livello_4">
      <g>
        <path class="cls-2" d="M520.1,242.6c-10.6-25.6-32.2-68.5-58-68.5s-15.7,5.7-18.3,7.4c-3,2.1-4.6,6-3.9,9.6,0,.5,9.6,45.7,11.6,67,5.9,63.1-5.3,109.4-33.4,137.5-5.6,5.6-16.2,14.9-16.3,14.9-2.1,1.9-3.2,4.6-2.7,7.3.4,2.7,2.2,4.9,4.9,6,1,.4,19.9,8.3,43.9,11.9-.2.9-.4,1.8-.4,2.8v94.9h-125.8v-120.3c30.3-4.9,55.4-20.8,70.5-45.1,32.8-53,5.6-211.5-38.6-291.1-16.8-30.2-34.2-45.4-51.8-45.4h0c-17.4,0-34.8,15.3-51.5,45.4-44.4,79.7-71.8,238.2-39,291.1,19,30.7,48.6,41.5,70.5,45.1v120.4h-125.8v-95.3c0-1-.1-2-.4-3,21.5-3.7,37.8-10.4,38.7-10.8,2.6-1.1,4.4-3.1,4.9-5.8.4-2.7-.6-5.5-2.8-7.3-.1,0-11.2-9.8-17.1-15.6-26-26-34.7-72.2-26.7-141.5,2.2-19.4,10.2-59.4,10.3-59.8.7-3.4-.7-7.2-3.4-9.3-3.3-2.6-14.5-10.9-22.5-10.9-22.3,0-40.2,31.9-51.3,58.8-24.4,58.9-42.1,157.3-15.5,183.9,13,13,30.8,19.8,53,20.7,0,.4,0,.7,0,1.1v94.9h-35.3c-6.5,0-11.9,5.2-11.9,11.3v17c0,6.3,5.6,11.8,11.9,11.8h428.6c6.2,0,11.4-5.4,11.4-11.8v-17c0-6.3-5-11.3-11.4-11.3h-35.8v-95.3c0-.3,0-.6,0-.9,20.2-1.6,36.5-8.3,48.5-20.4,29.1-29.1,17.2-111.4-8.8-174.2Z"/>
        <g>
          <path class="cls-3" d="M548.7,541.2c0-42.3,34.3-76.6,76.6-76.6s76.6,34.3,76.6,76.6-34.3,76.6-76.6,76.6-76.6-34.3-76.6-76.6Z"/>
          <path class="cls-3" d="M547.7,642.5c19.2-13,44.8-17.2,77.6-17.2s58.3,4.2,77.5,17.1c20.6,13.9,33.2,37.4,40,71.6,2.5,12.7-3.4,25.5-11.6,25.5h-211.8c-8.1,0-14-12.8-11.6-25.4,6.7-34.2,19.3-57.8,39.9-71.7Z"/>
        </g>
        <text class="cls-1" transform="translate(325.1 735.3)"><tspan x="0" y="0">M</tspan></text>
        <text class="cls-1" transform="translate(458.6 650.1) scale(.6)"><tspan x="0" y="0">2</tspan></text>
      </g>
    </g>
  </g>
</svg>