<?xml version="1.0" encoding="UTF-8"?>
<svg xmlns="http://www.w3.org/2000/svg" version="1.1" viewBox="0 0 1417.3 1417.3">
  <defs>
    <style>
      .cls-1 {
        fill: #6e6f73;
      }

      .cls-2 {
        fill: #ddd1c2;
        opacity: .5;
      }

      .cls-2, .cls-3, .cls-4 {
        isolation: isolate;
      }

      .cls-5 {
        fill: #fff;
        stroke: #999595;
        stroke-miterlimit: 10;
        stroke-width: 20px;
      }

      .cls-3 {
        fill: #d0d2d4;
        opacity: .9;
      }

      .cls-6 {
        fill: #0c1006;
      }

      .cls-4 {
        fill: #c7b299;
        opacity: .7;
      }

      .cls-7 {
        fill: #999;
      }

      .cls-8 {
        fill: #9c9ea1;
      }

      .cls-9 {
        fill: #06c;
      }
    </style>
  </defs>
  <!-- Generator: Adobe Illustrator 28.6.0, SVG Export Plug-In . SVG Version: 1.2.0 Build 709)  -->
  <g>
    <g id="Layer_1">
      <path class="cls-5" d="M80.5,1197.9V237.4c0-57.8,46.9-104.7,104.7-104.7h1020c57.8,0,104.7,46.9,104.7,104.7v1059.5c0,57.8-46.9,104.7-104.7,104.7H185.2c-57.8,0-104.7-46.9-104.7-104.7v-99Z"/>
      <path class="cls-9" d="M123.1,419.8v-149.1c0-53.8,43.6-97.4,97.4-97.4h949.2c53.8,0,97.4,43.6,97.4,97.4v298.8H123.8l-.6-149.8h-.1Z"/>
      <g>
        <g>
          <circle class="cls-6" cx="307.8" cy="238.2" r="57.4"/>
          <path class="cls-8" d="M351,238.6c0,23.9-19.4,43.2-43.2,43.2s-43.2-19.4-43.2-43.2V59c0-23.9,19.4-43.2,43.2-43.2s43.2,19.4,43.2,43.2v179.6Z"/>
          <path class="cls-1" d="M342.8,160.3v71.4c0,19.3-15.7,35-35,35s-35-15.7-35-35V66c0-19.3,15.7-35,35-35s35,15.7,35,35v94.3Z"/>
          <path class="cls-3" d="M336.1,135.8v66.3c0,18-12.7,32.5-28.3,32.5s-28.3-14.6-28.3-32.5V48.3c0-18,12.7-32.5,28.3-32.5s28.3,14.6,28.3,32.5v87.5Z"/>
        </g>
        <g>
          <circle class="cls-6" cx="695.3" cy="238.2" r="57.4" transform="translate(303.5 860.1) rotate(-76.7)"/>
          <path class="cls-8" d="M738.4,238.6c0,23.9-19.4,43.2-43.2,43.2s-43.2-19.4-43.2-43.2V59c0-23.9,19.4-43.2,43.2-43.2s43.2,19.4,43.2,43.2v179.6Z"/>
          <path class="cls-1" d="M730.2,160.3v71.4c0,19.3-15.7,35-35,35s-35-15.7-35-35V66c0-19.3,15.7-35,35-35s35,15.7,35,35v94.3Z"/>
          <path class="cls-3" d="M723.5,135.8v66.3c0,18-12.7,32.5-28.3,32.5s-28.3-14.6-28.3-32.5V48.3c0-18,12.7-32.5,28.3-32.5s28.3,14.6,28.3,32.5v87.5Z"/>
        </g>
        <g>
          <circle class="cls-6" cx="1082.5" cy="238.2" r="57.4" transform="translate(603.4 1237.7) rotate(-76.8)"/>
          <path class="cls-8" d="M1125.8,238.6c0,23.9-19.4,43.2-43.2,43.2s-43.2-19.4-43.2-43.2V59c0-23.9,19.4-43.2,43.2-43.2s43.2,19.4,43.2,43.2v179.6Z"/>
          <path class="cls-1" d="M1117.6,160.3v71.4c0,19.3-15.7,35-35,35s-35-15.7-35-35V66c0-19.3,15.7-35,35-35s35,15.7,35,35v94.3Z"/>
          <path class="cls-3" d="M1110.9,135.8v66.3c0,18-12.7,32.5-28.3,32.5s-28.3-14.6-28.3-32.5V48.3c0-18,12.7-32.5,28.3-32.5s28.3,14.6,28.3,32.5v87.5Z"/>
        </g>
      </g>
      <path class="cls-4" d="M1309.9,1181.4v114.3c0,57.8-46.9,104.7-104.7,104.7h-149l253.7-219Z"/>
      <path class="cls-2" d="M1309.9,1182.8l-4.2-.6-62.1-9.2-46.7-7c-57.2-8.5-110.5,31-119,88.1l-7.7,51.5-14.3,95.9,254-218.7h0Z"/>
      <g>
        <rect class="cls-7" x="240.8" y="641.2" width="230.6" height="230.6" rx="45" ry="45"/>
        <rect class="cls-7" x="572.5" y="641.5" width="230.6" height="230.6" rx="45" ry="45"/>
        <rect class="cls-7" x="903.6" y="641.5" width="230.6" height="230.6" rx="45" ry="45"/>
        <rect class="cls-7" x="241.1" y="937.1" width="230.6" height="230.6" rx="45" ry="45"/>
        <rect class="cls-7" x="572.7" y="937.4" width="230.6" height="230.6" rx="45" ry="45"/>
        <rect class="cls-7" x="903.9" y="937.4" width="230.6" height="230.6" rx="45" ry="45"/>
      </g>
    </g>
  </g>
</svg>