<?xml version="1.0" encoding="UTF-8"?>
<svg id="_2" data-name="2" xmlns="http://www.w3.org/2000/svg" version="1.1" viewBox="0 0 800 800">
  <defs>
    <style>
      .cls-1 {
        fill: #931111;
        stroke-width: 0px;
      }
    </style>
  </defs>
  <path class="cls-1" d="M601.7,0H198.3L0,198.3v403.4l198.3,198.3h403.4l198.3-198.3V198.3L601.7,0ZM729.2,359.2v213.2l-156.8,156.8H227.7l-156.8-156.8V227.6L227.7,70.8h344.7l156.8,156.8v131.6Z"/>
  <path class="cls-1" d="M399.2,522.8c-27.2,0-49.2,22-49.2,49.2s22,49.2,49.2,49.2,49.2-22,49.2-49.2c0-27.2-22-49.2-49.2-49.2Z"/>
  <path class="cls-1" d="M399.2,190.3c-27.2,0-49.2,22-49.2,49.2l9.3,192.8c0,22,17.8,39.8,39.9,39.8s39.8-17.8,39.8-39.8l9.4-192.8c0-27.1-22-49.2-49.2-49.2Z"/>
</svg>