<?xml version="1.0" encoding="UTF-8"?>
<svg id="Livello_1" data-name="Livello 1" xmlns="http://www.w3.org/2000/svg" version="1.1" viewBox="0 0 800 800">
  <defs>
    <style>
      .cls-1, .cls-2 {
        fill: #0e67aa;
        stroke-width: 0px;
      }

      .cls-2 {
        fill-rule: evenodd;
      }
    </style>
  </defs>
  <path class="cls-1" d="M400,233.3c18.4,0,33.3,14.9,33.3,33.3v166.7c0,18.4-14.9,33.3-33.3,33.3s-33.3-14.9-33.3-33.3v-166.7c0-18.4,14.9-33.3,33.3-33.3Z"/>
  <path class="cls-1" d="M433.3,533.3c0,18.4-14.9,33.3-33.3,33.3s-33.3-14.9-33.3-33.3,14.9-33.3,33.3-33.3,33.3,14.9,33.3,33.3Z"/>
  <path class="cls-2" d="M233.3,66.7c-92,0-166.7,74.6-166.7,166.7v333.3c0,92,74.6,166.7,166.7,166.7h333.3c92,0,166.7-74.6,166.7-166.7V233.3c0-92-74.6-166.7-166.7-166.7H233.3ZM133.3,233.3c0-55.2,44.8-100,100-100h333.3c55.2,0,100,44.8,100,100v333.3c0,55.2-44.8,100-100,100H233.3c-55.2,0-100-44.8-100-100V233.3Z"/>
</svg>