<?xml version="1.0" encoding="UTF-8"?>
<svg xmlns="http://www.w3.org/2000/svg" version="1.1" viewBox="0 0 330 330">
  <g id="Livello_1" data-name="Livello 1" display="none">
    <g>
      <path d="M289.8,282.8c-1.1,0-2.2-.4-3.1-1.1l-97.8-79.2c-2.1-1.7-2.5-4.9-.7-7,1.7-2.1,4.9-2.5,7-.7l97.8,79.2c2.1,1.7,2.5,4.9.7,7-1,1.2-2.4,1.9-3.9,1.9Z" fill="none" stroke="#2864ae" stroke-miterlimit="10" stroke-width="30"/>
      <circle cx="136.1" cy="148.1" r="100.9" fill="#fff" stroke="#2864ae" stroke-miterlimit="10" stroke-width="20"/>
    </g>
  </g>
  <g id="Livello_3" data-name="Livello 3" display="none">
    <circle cx="165" cy="165" r="140" fill="#fff" stroke="#2965ae" stroke-miterlimit="10" stroke-width="10"/>
    <ellipse cx="165" cy="165" rx="66.2" ry="140" fill="#fff" stroke="#2965ae" stroke-miterlimit="10" stroke-width="10"/>
    <line x1="23.8" y1="165" x2="306.2" y2="165" fill="none" stroke="#2965ae" stroke-miterlimit="10" stroke-width="10"/>
    <line x1="165" y1="25" x2="165" y2="305" fill="none" stroke="#2965ae" stroke-miterlimit="10" stroke-width="10"/>
    <path d="M59.6,66.9c15.2,9.6,52.9,30.5,105.4,31,52.3.5,90.2-19.5,105.6-28.8" fill="none" stroke="#2965ae" stroke-miterlimit="10" stroke-width="10"/>
    <path d="M59.4,263.2c15.2-9.6,52.9-30.5,105.4-31,52.3-.5,90.2,19.5,105.6,28.8" fill="none" stroke="#2965ae" stroke-miterlimit="10" stroke-width="10"/>
    <circle cx="101.7" cy="198.6" r="16" fill="#2965ae" stroke-width="0"/>
    <circle cx="222" cy="237.4" r="16" fill="#2965ae" stroke-width="0"/>
    <circle cx="165.1" cy="127.3" r="16" fill="#2965ae" stroke-width="0"/>
    <circle cx="245.6" cy="81.3" r="16" fill="#2965ae" stroke-width="0"/>
    <circle cx="55.2" cy="165" r="16" fill="#2965ae" stroke-width="0"/>
  </g>
  <g id="Livello_4" data-name="Livello 4">
    <path d="M149.1,165h.2M289.1,165c0,77.3-62.7,140-140,140S9.1,242.3,9.1,165,71.8,25,149.1,25s140,62.7,140,140ZM211.3,102.8l-101.1,23.3-23.3,101.1,101.1-23.3,23.3-101.1Z" fill="none" stroke="#2a65ae" stroke-linecap="round" stroke-linejoin="round" stroke-width="15"/>
  </g>
</svg>