<?xml version="1.0" encoding="UTF-8"?>
<svg xmlns="http://www.w3.org/2000/svg" version="1.1" viewBox="0 0 800 800">
  <defs>
    <style>
      .cls-1 {
        stroke: #8fb7a0;
      }

      .cls-1, .cls-2, .cls-3, .cls-4, .cls-5 {
        fill: #0b6031;
      }

      .cls-1, .cls-3, .cls-4, .cls-5 {
        stroke-miterlimit: 10;
      }

      .cls-1, .cls-4, .cls-5 {
        stroke-width: 2px;
      }

      .cls-6 {
        fill: #fff;
      }

      .cls-3 {
        stroke: #92a59a;
      }

      .cls-4 {
        stroke: #8aaa98;
      }

      .cls-5 {
        stroke: #0b6031;
      }
    </style>
  </defs>
  <!-- Generator: Adobe Illustrator 28.7.4, SVG Export Plug-In . SVG Version: 1.2.0 Build 166)  -->
  <g>
    <g id="Livello_2">
      <g>
        <polygon class="cls-3" points="362 523.4 409.5 523.4 353.4 454.6 392.7 454.6 340.6 389.8 376.6 389.8 325.3 324.3 359.7 324.3 311.1 259.5 342.9 259.5 252.7 133 162.4 259.5 194.2 259.5 145.6 324.3 180 324.3 128.7 389.8 164.7 389.8 112.6 454.6 151.9 454.6 95.8 523.4 143.3 523.4 207.7 523.8 210 596.4 293.5 596.4 291.2 523.8 362 523.4"/>
        <polygon class="cls-3" points="736.5 471.2 784 471.2 727.8 402.3 767.2 402.3 715.1 337.6 751.1 337.6 699.8 272 734.2 272 685.5 207.3 717.4 207.3 627.1 80.7 536.9 207.3 568.7 207.3 520.1 272 554.5 272 503.2 337.6 539.1 337.6 487.1 402.3 526.4 402.3 470.3 471.2 517.8 471.2 582.2 471.6 584.5 544.2 667.9 544.2 665.7 471.6 736.5 471.2"/>
        <g>
          <path class="cls-4" d="M643.7,606.4v-3.3c0-.6,0-1.3-.2-1.8,0-.2-.2-1.3-.2-1.5-.7-3.3-1.7-6.4-2.9-9.6,0-.2-.4-.9-.4-.9-.2-.4-.4-.7-.6-.9-.4-.7-.7-1.5-1.1-2-.6-1.1-1.3-2-1.8-2.9.2.4-.6-.7-.9-.9-.7-.7-1.7-1.5-2.4-2.2-1.5-1.3-2.9-2.4-4.4-3.3-5.7-3.5-11.8-6.1-18.2-7.7-.2,9.4,2.8,18.6,8.3,26.1,2.4,2.9,5,5.5,8.1,7.7,1.7,1.1,3.5,2.2,5.3,3.1.6.2,1.1.6,1.7.7l.2.2h0c.9.4,1.7.7,2.6.9.7.2,1.7.6,2.4.7.4,0,.7.2,1.1.2h2.6l.2-.2c.2,0,.2-.2.4-.2h-.4l.2-.2-.2.2h-.2l.2-.4c.4-.6.7-1.5.7-1.8Z"/>
          <path class="cls-5" d="M495,650.3c-.8,9.7-1.6,21.4-6.2,30.6h55.3c-2.5-5.6-4.1-11.5-4.7-17.5-.8-6.6-1.4-13-1.9-19.5-1.4-30.8-.2-62.1.6-92.9.4-14,.8-28,1.4-41.7.2-4.3.6-8.6.6-13-3.9,0-8-.2-11.9-.4-8.8-.6-17.7-2.5-26.1-5.1.2,8.6.6,17.3.8,25.9.6,9.7.4,19.3-.6,29-.4,3.5-1.2,7.6-4.7,9.7-5.3,3.1-13,1.9-18.5.6-12.3-2.9-26.5-9.5-31.7-21.8-3.7-9.9-5.8-20.2-6.2-30.8l-.4.2c1.2,9.5,2.9,18.9,3.9,28.4.6,4.9,1,10.1,3.7,14.4,2.5,3.5,5.8,6.4,9.7,8.2,8.8,4.5,18.1,8.2,27.6,10.7,3.9,1,9,3.1,10.1,7.6.2,1.2.4,2.5.4,3.7.6,10.3.4,20.8.2,31,.2,14.2-.2,28.6-1.4,42.8Z"/>
          <path class="cls-1" d="M552.8,495.7c0,5.8-.6,11.5-.8,17.1-.6,17.1-1.2,34.1-1.6,51.2,6-2.7,11.5-6.4,16-11.1,9.9-9.9,17.3-23.2,23-36,5.1-11.9,8.8-24.5,10.7-37.2-3.9,2.7-7.8,4.9-12.1,6.8-11.3,4.7-23,8-35.2,9.3Z"/>
          <path class="cls-2" d="M335.5,373.3c1.6,6.2,4.7,11.9,8.8,16.9,4.9,5.6,10.5,10.3,16.7,14.2,2.9,1.9,3.9,5.8,2.1,8.6-.8,1.2-2.1,2.3-3.5,2.7-.2,0-1,.4-.8.2h-.2c-.2.2-.6.4-.8.6-.4.4-1,.8-1.4,1.4,0,0-.2.2-.4.4s-.4.4-.4.6c-1.6,2.3-2.9,4.9-3.7,7.8-.6,1.6-1,3.3-1.2,4.9-.2.8-.4,1.6-.4,2.5,0,0-.2.8-.2,1v.4c-.4,2.9-.4,6,0,8.8,0,0,.2,1.6.4,1.9.2.8.4,1.6.6,2.5.4,1.6.8,3.1,1.4,4.7,1,3.5,2.5,6.8,3.9,9.9,2.7,6.2,6.6,11.7,11.3,16.4,4.3,4.1,9.5,7.2,15,9.5,7,2.7,14.2,4.3,21.4,5.3,14.8,1.9,29.8-.4,43.6-6.4,3.1-1.4,6.2-3.1,9.3-4.7,1.4-.8,2.9-1.9,4.3-2.7,1.2-.8,1.9-1.2,2.5-1.9,2.3-1.9,4.3-3.7,6.2-5.8.4-.6,1-1,1.4-1.6.2-.2.2-.4.4-.6.6-.8,1.2-1.6,1.6-2.5,1.9-2.9,5.8-3.9,8.6-2.1.4.2.8.4,1,.8.2.2,1.2,1,1.2,1,.2.2.6.4.8.6,1,.6,1.9,1.2,2.9,2.1,1.9,1.2,3.9,2.3,6,3.5,4.1,2.1,8.4,3.9,12.7,5.1,8.6,2.7,17.5,4.3,26.5,4.5,9,.4,18.1-.2,27.1-1.6,4.5-.8,9-2.1,13.6-3.5,2.3-.6,4.3-1.4,6.4-2.5l.4-.2c.6-.2,1.2-.4,1.6-.8,1-.4,1.9-.8,2.7-1.4,3.7-1.9,7.4-4.1,10.7-6.6l.2-.2c.2-.2.6-.4.8-.6s.6-.4.8-.8c.8-.6,1.4-1.2,2.1-1.9,1.4-1.4,2.9-2.9,4.3-4.5,2.1-2.1,5.1-2.5,7.4-1,10.1,7,21.6,11.5,33.7,13.4,18.7,2.3,39.3-4.5,50-20.8,9.5-14.6,8.4-35.2-4.7-47.1-2.5-2.5-2.3-6.4.2-8.8.8-.6,1.6-1.2,2.7-1.4,10.7-3.3,19.9-10.1,26.1-19.3,11.7-17.3,13-38.7.4-55.7-11.5-15.6-33.3-24.3-52-19.3-4.3,1-9-3.1-7.6-7.6,2.7-8,2.5-16.9-.4-24.9-5.1-15-17.5-26.3-32.7-30.4-17.5-4.7-36.4-.6-51.6,8.6-3.1,1.6-6.8.6-8.4-2.5-.2-.4-.4-.8-.6-1.2-.8-2.1-1.6-3.9-2.7-6-4.7-9-11.7-16.7-20.2-22.4-15-10.3-33.7-13.4-51.2-8-17.3,5.3-31.3,17.9-38.7,34.3-1.4,3.3-5.8,3.5-8.4,2.3-25.7-13-57-2.7-69.9,23-3.1,6-4.9,12.5-5.3,19.3-.2,3.3-.6,6.6-1.4,9.7v.6c-.2.4-.4.8-.6,1.4-.4,1-.8,2.1-1.4,2.9-2.7,3.7-5.8,7-9.5,9.7-6.4,5.3-11.5,11.9-15.4,19.3-7.6,14-9.9,30.2-6,45.9ZM395.1,361.8c1-3.3,4.3-5.1,7.6-4.3,13.2,3.1,26.1,7.6,36.6,16.4,7,6,11.1,14.2,13.8,22.8,2.3,7.6,4.3,17.9-.4,25.1-5.1,7.6-15.6,6.4-23.2,3.5-9.9-3.7-18.5-10.3-24.7-18.7-9.3-13-12.7-29.2-9.7-44.8Z"/>
          <path class="cls-6" d="M535.5,375.5l1.6-.4c.8,0,1.2-.4,2-.4,1.6-.4,2.8-.4,4.4-.8,4-.8,7.5-2,11.1-2.8,1.6-.4,3.6-1.2,5.2-1.6.8-.4,1.6-.4,2.4-.8h.4l.8-.4c3.6-1.6,6.7-3.6,9.9-5.5.8-.4,1.6-1.2,2.4-1.6-.4.4-1.6,1.2.4-.4,1.2-1.2,2.4-2,3.6-3.2,2.8-2.4,4.8-5.2,6.7-8.3,2.4-3.6,4-6.7,5.9-10.7,3.2-7.1,5.5-14.3,6.7-22.2.4-2,.8-3.6.8-5.5s.4-4,.4-5.9c-19,2.4-36.1,11.1-49.1,25-.8.8-1.6,2-2.8,2.8,0,0,0,.4-.4.4l-.4.4c-1.2,1.6-2.4,3.2-3.2,5.2-2,3.6-4,7.1-5.5,10.7,0,.4-.8,2-.8,2-.4.8-.8,2-1.2,2.8-.8,2-1.2,4-2,5.9-1.2,4-2,7.5-2.8,11.5,0,.8-.4,3.6-.8,3.6v.4h1.6c0,.4,2,.4,2.8,0Z"/>
        </g>
        <g>
          <path class="cls-4" d="M440.9,662.9h0v-2.5c0-.4,0-1-.1-1.4,0-.1-.1-1-.1-1.1-.6-2.5-1.3-4.9-2.2-7.2,0-.1-.3-.7-.3-.7-.1-.3-.3-.6-.4-.7-.3-.6-.6-1.1-.8-1.5-.4-.8-1-1.5-1.4-2.2.1.3-.4-.6-.7-.7-.6-.6-1.3-1.1-1.8-1.7-1.1-1-2.2-1.8-3.3-2.5-4.3-2.6-8.9-4.6-13.8-5.8-.1,7.1,2.1,14,6.3,19.7,1.8,2.2,3.8,4.2,6.1,5.8,1.3.8,2.6,1.7,4,2.4.4.1.8.4,1.3.6h.1c.7.4,1.3.7,1.9.8.6.1,1.3.4,1.8.6.3,0,.6.1.8.1h2.1c.1-.1.1-.3.3-.3h-.3.1-.3v-.3c.4-.4.7-1.1.7-1.4Z"/>
          <path class="cls-5" d="M328.5,696.1c-.6,7.3-1.2,16.2-4.7,23.2h41.8c-1.9-4.2-3.1-8.7-3.6-13.2-.6-5-1.1-9.8-1.4-14.8-1.1-23.3-.2-47,.5-70.3.3-10.6.6-21.2,1.1-31.6.2-3.3.5-6.5.5-9.8-3,0-6.1-.2-9-.3-6.7-.5-13.4-1.9-19.8-3.9.2,6.5.5,13.1.6,19.6.5,7.3.3,14.6-.5,21.9-.3,2.6-.9,5.8-3.6,7.3-4,2.3-9.8,1.4-14,.5-9.3-2.2-20.1-7.2-23.9-16.5-2.8-7.5-4.4-15.2-4.7-23.3l-.3.2c.9,7.2,2.2,14.3,3,21.5.5,3.7.8,7.6,2.8,10.9,1.9,2.6,4.4,4.8,7.3,6.2,6.7,3.4,13.7,6.2,20.8,8.1,3,.8,6.8,2.3,7.6,5.8.2.9.3,1.9.3,2.8.5,7.8.3,15.7.2,23.5.2,10.7-.2,21.6-1.1,32.3Z"/>
          <path class="cls-1" d="M372.2,579.1c0,4.4-.5,8.7-.6,12.9-.5,12.9-.9,25.8-1.2,38.7,4.5-2,8.7-4.8,12.1-8.4,7.5-7.5,13.1-17.6,17.4-27.2,3.9-9,6.7-18.5,8.1-28.1-3,2-5.9,3.7-9.2,5.1-8.6,3.6-17.4,6.1-26.6,7Z"/>
          <path class="cls-3" d="M207.8,486.6c1.2,4.7,3.6,9,6.7,12.8,3.7,4.2,7.9,7.8,12.6,10.7,2.2,1.4,3,4.4,1.6,6.5-.6.9-1.6,1.7-2.6,2-.2,0-.8.3-.6.2h-.2c-.2.2-.5.3-.6.5-.3.3-.8.6-1.1,1.1,0,0-.2.2-.3.3s-.3.3-.3.5c-1.2,1.7-2.2,3.7-2.8,5.9-.5,1.2-.8,2.5-.9,3.7-.2.6-.3,1.2-.3,1.9,0,0-.2.6-.2.8v.3c-.3,2.2-.3,4.5,0,6.7,0,0,.2,1.2.3,1.4.2.6.3,1.2.5,1.9.3,1.2.6,2.3,1.1,3.6.8,2.6,1.9,5.1,3,7.5,2,4.7,5,8.9,8.6,12.4,3.3,3.1,7.2,5.4,11.4,7.2,5.3,2,10.7,3.3,16.2,4,11.2,1.4,22.6-.3,33-4.8,2.3-1.1,4.7-2.3,7-3.6,1.1-.6,2.2-1.4,3.3-2,.9-.6,1.4-.9,1.9-1.4,1.7-1.4,3.3-2.8,4.7-4.4.3-.5.8-.8,1.1-1.2.2-.2.2-.3.3-.5.5-.6.9-1.2,1.2-1.9,1.4-2.2,4.4-3,6.5-1.6.3.2.6.3.8.6.2.2.9.8.9.8.2.2.5.3.6.5.8.5,1.4.9,2.2,1.6,1.4.9,3,1.7,4.5,2.6,3.1,1.6,6.4,3,9.6,3.9,6.5,2,13.2,3.3,20.1,3.4,6.8.3,13.7-.2,20.5-1.2,3.4-.6,6.8-1.6,10.3-2.6,1.7-.5,3.3-1.1,4.8-1.9l.3-.2c.5-.2.9-.3,1.2-.6.8-.3,1.4-.6,2-1.1,2.8-1.4,5.6-3.1,8.1-5l.2-.2c.2-.2.5-.3.6-.5s.5-.3.6-.6c.6-.5,1.1-.9,1.6-1.4,1.1-1.1,2.2-2.2,3.3-3.4,1.6-1.6,3.9-1.9,5.6-.8,7.6,5.3,16.3,8.7,25.5,10.1,14.2,1.7,29.7-3.4,37.8-15.7,7.2-11,6.4-26.6-3.6-35.6-1.9-1.9-1.7-4.8.2-6.7.6-.5,1.2-.9,2-1.1,8.1-2.5,15.1-7.6,19.8-14.6,8.9-13.1,9.8-29.2.3-42.1-8.7-11.8-25.2-18.4-39.3-14.6-3.3.8-6.8-2.3-5.8-5.8,2-6.1,1.9-12.8-.3-18.8-3.9-11.4-13.2-19.9-24.7-23-13.2-3.6-27.5-.5-39,6.5-2.3,1.2-5.1.5-6.4-1.9-.2-.3-.3-.6-.5-.9-.6-1.6-1.2-3-2-4.5-3.6-6.8-8.9-12.6-15.2-17-11.4-7.8-25.5-10.1-38.7-6.1-13.1,4-23.6,13.5-29.2,26-1.1,2.5-4.4,2.6-6.4,1.7-19.4-9.8-43.1-2-52.9,17.4-2.3,4.5-3.7,9.5-4,14.6-.2,2.5-.5,5-1.1,7.3v.5c-.2.3-.3.6-.5,1.1-.3.8-.6,1.6-1.1,2.2-2,2.8-4.4,5.3-7.2,7.3-4.8,4-8.7,9-11.7,14.6-5.8,10.6-7.5,22.9-4.5,34.7ZM252.9,477.9c.8-2.5,3.3-3.9,5.8-3.3,10,2.3,19.8,5.8,27.7,12.4,5.3,4.5,8.4,10.7,10.4,17.3,1.7,5.8,3.3,13.5-.3,19-3.9,5.8-11.8,4.8-17.6,2.6-7.5-2.8-14-7.8-18.7-14.2-7-9.8-9.6-22.1-7.3-33.9Z"/>
          <path class="cls-6" d="M359.1,488.3l1.2-.3c.6,0,.9-.3,1.5-.3,1.2-.3,2.1-.3,3.3-.6,3-.6,5.7-1.5,8.4-2.1,1.2-.3,2.7-.9,3.9-1.2.6-.3,1.2-.3,1.8-.6h.3l.6-.3c2.7-1.2,5.1-2.7,7.5-4.2.6-.3,1.2-.9,1.8-1.2-.3.3-1.2.9.3-.3.9-.9,1.8-1.5,2.7-2.4,2.1-1.8,3.6-3.9,5.1-6.3,1.8-2.7,3-5.1,4.5-8.1,2.4-5.4,4.2-10.8,5.1-16.8.3-1.5.6-2.7.6-4.2s.3-3,.3-4.5c-14.4,1.8-27.3,8.4-37.2,18.9-.6.6-1.2,1.5-2.1,2.1,0,0,0,.3-.3.3l-.3.3c-.9,1.2-1.8,2.4-2.4,3.9-1.5,2.7-3,5.4-4.2,8.1,0,.3-.6,1.5-.6,1.5-.3.6-.6,1.5-.9,2.1-.6,1.5-.9,3-1.5,4.5-.9,3-1.5,5.7-2.1,8.7,0,.6-.3,2.7-.6,2.7v.3h1.2c0,.3,1.5.3,2.1,0Z"/>
        </g>
        <g>
          <path class="cls-4" d="M323.4,643v-3.3c0-.5,0-1.3-.2-1.8,0-.2-.2-1.3-.2-1.5-.7-3.3-1.6-6.4-2.9-9.5,0-.2-.4-.9-.4-.9-.2-.4-.4-.7-.5-.9-.4-.7-.7-1.5-1.1-2-.5-1.1-1.3-2-1.8-2.9.2.4-.5-.7-.9-.9-.7-.7-1.6-1.5-2.4-2.2-1.5-1.3-2.9-2.4-4.4-3.3-5.7-3.5-11.7-6-18-7.7-.2,9.3,2.7,18.4,8.2,25.9,2.4,2.9,4.9,5.5,8,7.7,1.6,1.1,3.5,2.2,5.3,3.1.5.2,1.1.5,1.6.7l.2.2h0c.9.4,1.6.7,2.6.9.7.2,1.6.5,2.4.7.4,0,.7.2,1.1.2h2.6l.2-.2c.2,0,.2-.2.4-.2h-.4l.2-.2-.2.2h-.2l.2-.4c.4-.5.7-1.5.7-1.8Z"/>
          <path class="cls-5" d="M176,686.5c-.8,9.6-1.6,21.2-6.1,30.4h54.8c-2.4-5.5-4.1-11.4-4.7-17.3-.8-6.5-1.4-12.8-1.8-19.4-1.4-30.6-.2-61.6.6-92.1.4-13.9.8-27.7,1.4-41.4.2-4.3.6-8.6.6-12.8-3.9,0-7.9-.2-11.8-.4-8.8-.6-17.5-2.4-25.9-5.1.2,8.6.6,17.1.8,25.7.6,9.6.4,19.2-.6,28.7-.4,3.5-1.2,7.5-4.7,9.6-5.3,3.1-12.8,1.8-18.3.6-12.2-2.9-26.3-9.4-31.4-21.6-3.7-9.8-5.7-20-6.1-30.6l-.4.2c1.2,9.4,2.9,18.8,3.9,28.1.6,4.9,1,10,3.7,14.3,2.4,3.5,5.7,6.3,9.6,8.2,8.8,4.5,17.9,8.2,27.3,10.6,3.9,1,9,3.1,10,7.5.2,1.2.4,2.4.4,3.7.6,10.2.4,20.6.2,30.8.2,14.1-.2,28.3-1.4,42.4Z"/>
          <path class="cls-1" d="M233.3,533.2c0,5.7-.6,11.4-.8,16.9-.6,16.9-1.2,33.8-1.6,50.8,5.9-2.6,11.4-6.3,15.9-11,9.8-9.8,17.1-23,22.8-35.7,5.1-11.8,8.8-24.3,10.6-36.9-3.9,2.6-7.7,4.9-12,6.7-11.2,4.7-22.8,7.9-34.9,9.2Z"/>
          <path class="cls-3" d="M17.9,411.9c1.6,6.1,4.7,11.8,8.8,16.7,4.9,5.5,10.4,10.2,16.5,14.1,2.9,1.8,3.9,5.7,2,8.6-.8,1.2-2,2.2-3.5,2.6-.2,0-1,.4-.8.2h-.2c-.2.2-.6.4-.8.6-.4.4-1,.8-1.4,1.4,0,0-.2.2-.4.4s-.4.4-.4.6c-1.6,2.2-2.9,4.9-3.7,7.7-.6,1.6-1,3.3-1.2,4.9-.2.8-.4,1.6-.4,2.4,0,0-.2.8-.2,1v.4c-.4,2.9-.4,5.9,0,8.8,0,0,.2,1.6.4,1.8.2.8.4,1.6.6,2.4.4,1.6.8,3.1,1.4,4.7,1,3.5,2.4,6.7,3.9,9.8,2.6,6.1,6.5,11.6,11.2,16.3,4.3,4.1,9.4,7.1,14.9,9.4,6.9,2.6,14.1,4.3,21.2,5.3,14.7,1.8,29.6-.4,43.2-6.3,3.1-1.4,6.1-3.1,9.2-4.7,1.4-.8,2.9-1.8,4.3-2.6,1.2-.8,1.8-1.2,2.4-1.8,2.2-1.8,4.3-3.7,6.1-5.7.4-.6,1-1,1.4-1.6.2-.2.2-.4.4-.6.6-.8,1.2-1.6,1.6-2.4,1.8-2.9,5.7-3.9,8.6-2,.4.2.8.4,1,.8.2.2,1.2,1,1.2,1,.2.2.6.4.8.6,1,.6,1.8,1.2,2.9,2,1.8,1.2,3.9,2.2,5.9,3.5,4.1,2,8.4,3.9,12.6,5.1,8.6,2.6,17.3,4.3,26.3,4.5,9,.4,17.9-.2,26.9-1.6,4.5-.8,9-2,13.5-3.5,2.2-.6,4.3-1.4,6.3-2.4l.4-.2c.6-.2,1.2-.4,1.6-.8,1-.4,1.8-.8,2.6-1.4,3.7-1.8,7.3-4.1,10.6-6.5l.2-.2c.2-.2.6-.4.8-.6s.6-.4.8-.8c.8-.6,1.4-1.2,2-1.8,1.4-1.4,2.9-2.9,4.3-4.5,2-2,5.1-2.4,7.3-1,10,6.9,21.4,11.4,33.4,13.2,18.5,2.2,38.9-4.5,49.5-20.6,9.4-14.5,8.4-34.9-4.7-46.7-2.4-2.4-2.2-6.3.2-8.8.8-.6,1.6-1.2,2.6-1.4,10.6-3.3,19.8-10,25.9-19.2,11.6-17.1,12.8-38.3.4-55.2-11.4-15.5-33-24.1-51.6-19.2-4.3,1-9-3.1-7.5-7.5,2.6-7.9,2.4-16.7-.4-24.7-5.1-14.9-17.3-26.1-32.4-30.2-17.3-4.7-36.1-.6-51.2,8.6-3.1,1.6-6.7.6-8.4-2.4-.2-.4-.4-.8-.6-1.2-.8-2-1.6-3.9-2.6-5.9-4.7-9-11.6-16.5-20-22.2-14.9-10.2-33.4-13.2-50.8-7.9-17.1,5.3-31,17.7-38.3,34-1.4,3.3-5.7,3.5-8.4,2.2-25.5-12.8-56.5-2.6-69.3,22.8-3.1,5.9-4.9,12.4-5.3,19.2-.2,3.3-.6,6.5-1.4,9.6v.6c-.2.4-.4.8-.6,1.4-.4,1-.8,2-1.4,2.9-2.6,3.7-5.7,6.9-9.4,9.6-6.3,5.3-11.4,11.8-15.3,19.2-7.5,13.9-9.8,30-5.9,45.5ZM77,400.5c1-3.3,4.3-5.1,7.5-4.3,13,3.1,25.9,7.5,36.3,16.3,6.9,5.9,11,14.1,13.7,22.6,2.2,7.5,4.3,17.7-.4,24.9-5.1,7.5-15.5,6.3-23,3.5-9.8-3.7-18.3-10.2-24.5-18.5-9.2-12.8-12.6-28.9-9.6-44.4Z"/>
          <path class="cls-6" d="M216.2,414.1l1.6-.4c.8,0,1.2-.4,2-.4,1.6-.4,2.7-.4,4.3-.8,3.9-.8,7.5-2,11-2.7,1.6-.4,3.5-1.2,5.1-1.6.8-.4,1.6-.4,2.4-.8h.4l.8-.4c3.5-1.6,6.7-3.5,9.8-5.5.8-.4,1.6-1.2,2.4-1.6-.4.4-1.6,1.2.4-.4,1.2-1.2,2.4-2,3.5-3.1,2.7-2.4,4.7-5.1,6.7-8.2,2.4-3.5,3.9-6.7,5.9-10.6,3.1-7.1,5.5-14.1,6.7-22,.4-2,.8-3.5.8-5.5s.4-3.9.4-5.9c-18.9,2.4-35.7,11-48.7,24.7-.8.8-1.6,2-2.7,2.7,0,0,0,.4-.4.4l-.4.4c-1.2,1.6-2.4,3.1-3.1,5.1-2,3.5-3.9,7.1-5.5,10.6,0,.4-.8,2-.8,2-.4.8-.8,2-1.2,2.7-.8,2-1.2,3.9-2,5.9-1.2,3.9-2,7.5-2.7,11.4,0,.8-.4,3.5-.8,3.5v.4h1.6c0,.4,2,.4,2.7,0Z"/>
        </g>
      </g>
    </g>
  </g>
</svg>