<?xml version="1.0" encoding="UTF-8"?>
<svg xmlns="http://www.w3.org/2000/svg" version="1.1" viewBox="0 0 800 800">
  <defs>
    <style>
      .cls-1, .cls-2, .cls-3 {
        fill: #0b6031;
      }

      .cls-2 {
        font-family: Articulate-Bold, Articulate;
        font-size: 200px;
        font-weight: 700;
      }

      .cls-3 {
        display: none;
      }
    </style>
  </defs>
  <!-- Generator: Adobe Illustrator 28.7.4, SVG Export Plug-In . SVG Version: 1.2.0 Build 166)  -->
  <g>
    <g id="Layer_1">
      <path class="cls-1" d="M704.3,45.5c-4.9-7.1-15.7-7.1-20.6,0-7.1,10.2-69,101.1-69,140.7s35.6,79.3,79.3,79.3,79.3-35.6,79.3-79.3-62-130.5-69-140.7ZM694,240.5c-29.9,0-54.3-24.4-54.3-54.3s30-73.9,54.3-111.1c24.3,37.2,54.3,90.2,54.3,111.1,0,29.9-24.4,54.3-54.3,54.3Z"/>
      <path class="cls-1" d="M588.6,658.3c-12.3-1.5-75-8.5-97,2.9-25.4,13.3-35.4,44.5-22.7,70l-33.9,29.1v-68.7c23-5.6,40.1-26.4,40.1-51.1s-35.2-77.1-42.3-87.3c-4.9-7.1-15.7-7.1-20.6,0-7.1,10.2-42.3,62.5-42.3,87.3s17.1,45.5,40.1,51.1v95.9c0,10.5,12.7,16.3,20.7,9.5l54.4-46.7c16,11.6,37.8,13.2,55.3,4.1,22-11.5,52-66.9,57.8-77.9,4-7.6-1-17.2-9.5-18.3ZM422.5,628c-6.9,0-12.5,5.6-12.5,12.5v24.5c-8.9-4.6-15-13.8-15-24.5s12.9-34.2,27.6-57.4c14.6,23.2,27.6,48.3,27.6,57.4s-6.1,19.9-15,24.5v-24.5c0-6.9-5.6-12.5-12.5-12.5ZM528.8,732.3c-7.6,4-16.3,4-23.6.9l19-16.3c5.3-4.5,5.9-12.4,1.4-17.7-4.5-5.2-12.4-5.9-17.7-1.4l-18.7,16c-2.7-11.9,2.8-24.6,14.1-30.5,4.8-2.5,16.6-3.6,31.2-3.6s21.3.5,32.5,1.4c-13.8,23.7-30,46.8-38.1,51Z"/>
      <path class="cls-1" d="M768.9,291.2c-1.1-6.8-7.5-11.5-14.4-10.4-6.8,1.1-11.5,7.5-10.4,14.4,2.7,16.9,4.1,34.2,4.1,51.5,0,106.8-52.9,206.4-141.5,266.4-5.2,3.5-7,10.6-4.1,16.2,3.4,6.5,12,8.7,18.1,4.5,95.5-64.7,152.5-172,152.5-287.2,0-18.6-1.5-37.2-4.4-55.4Z"/>
      <path class="cls-1" d="M620.8,59.4C563.4,20.5,496.3,0,426.7,0s-139.9,21.5-198.2,62.3c-57,39.8-100.3,95-125.2,159.6-2.5,6.5.7,13.7,7.2,16.2,6.4,2.5,13.7-.8,16.2-7.2C174.2,107.8,294.8,25.1,426.7,25.1s126.8,19.1,180.1,55.1c5.7,3.9,13.5,2.4,17.4-3.3,3.9-5.7,2.4-13.5-3.3-17.4Z"/>
      <path class="cls-1" d="M349.6,658.8c-92.4-22.8-169.6-85-211.7-170.7-3-6.2-10.5-8.8-16.8-5.7-6.2,3-8.8,10.6-5.7,16.8,45.4,92.4,128.5,159.5,228.1,184,6.7,1.7,13.7-2.7,15.2-9.4,1.5-6.6-2.7-13.3-9.2-14.9Z"/>
      <text class="cls-2" transform="translate(29.6 424.4)"><tspan x="0" y="0">C</tspan></text>
      <path class="cls-3" d="M550.8,499l-25.1,4.2-26.7,9.3-17.6,3.1-23-8.8-4.4,7.1-9.5-3.5-10.5,15.4,9.1,11.2,8.8-.7,38.8,20.5,5.4-.9,11.5,4.7,6.4,9.5,19.8,3.1,11.7-15.4-10.1-15.8,4.9-21.6,10.7-21.3ZM324.7,372.9l-11-8-15,15.2-24.4,9.8,9.2,15.1,1.5,61.1,6.2,7.7,8.9,3.7,8.3-15.8,17.6,3.4,3.1-19.4,2.9-25.3-3.8-6.6,4.2-20.6-7.7-20.3ZM629.7,377.2l-76.4-31.3,6.6-16.6-6.5-6.8-31.1,3-36.8-26.1-20.1-43.6-44.9-33.5-4.7-18.8,3.9-7.9-3.2-17.5,40.6-31.5v-1c.1,0-8.5-22.4-8.5-22.4l9.4-11.3-39.5-5.4-11.1-11-32-.7-4.9,9-17.7-4.1.2,15-8.5-3.6-9.4,12.2-27,12.2-5.4,13.7-15.8-20.1-19.2,14.6-10.1-2.3-24.6,6.9,9.5,27.1-13.1,15.3,10.2,10.5-6.7,7.6,6,14.6,22.1,7.6v14.2c0,0,15-6.9,15-6.9l17.1-20.7,20.4,1.4,35.4,25.1,1.3,11.2,14.1,33.4,85.8,74.7,24.9-1.8,10.3,13.7,17.5,13.8,9.9-3.1,9.8,12.6-2.7,7.6,16.4,10.1,10.9-2.8,25.3,56.9-13.1,8.2,3.1,7.1-9.4,20.4,5.7,7.5,12.3-2.1,2.2-9.4,13.9-16.5-2.3-12.1,12.3-10.8,8,.8-.2-24.2-21.9-14.7,13.1-37.6,17.7,8.6,9.2-.4,13,16.9,11.4,4.3,3.8-15.6-21.1-23.5Z"/>
      <path class="cls-1" d="M411.4,162.4c1.1,0,2.5.6,3.8,2.3-5.5-7.8,6.1-4.4,6.8-11.9,6.6-4.9,4.2-8.1,6.1-8.3l2.1-1.7c-4.1,1.5-5.5,1.8-6.6,1.8h-1.9c-1.4,0-3.8.3-9.3,2-12.7.9-21.9,14.7-26.2,15.1-4.4,2.4-4.2,2.8-3.2,2.8s.7,0,1,0,.7,0,.9,0c1,0,.8.5-5.3,3.3,1.4.4-10.6,5.7-10.7,13.9-.4,3.2.9,5.4,3.1,5.4s4.2-1.4,6.8-5c8.5-9.8,26.4-10.7,34.1-16.7-4.8-.4-3.9-2.8-1.6-2.8ZM368.4,165.7c-.8,0,.3-1,1.5-2.1,1.3-1,2.8-2.1,2.8-2.1h0c5.1-1.9,2-2.4,4.7-3.7h-.2c-.6,0,.5-.8,1.4-1.6.9-.8,1.8-1.6.9-1.6s-1.7.3-3.8,1.1c.7-.9,3.2-1.6,6.8-3.6-5.2,1.7-9.2,2.7-9.7,2.7s1.8-.8,8.3-2.7c.3,0,.6,0,.8,0,.7,0,.9-.2.8-.4s-.5-.3-1.1-.3h0c-9.3.8-16.3,6.6-14.2,7.4,1.2-.4,2.1-.6,2.6-.6,1.2,0,.7,1-1.8,2.5,1.1,2.6-18.9,9.4-21.1,11.9,1.1-.7,1.9-.8,2.3-.8,1.5,0-.5,2.9-2.5,4.3,1.2,1.1,2.2,1.5,2.9,1.5,2,0,2.8-2.7,4.5-3.6.4.8.8,1.1,1.2,1.1,1.6,0,3.6-4,5.2-6,.5.5,1,.8,1.8.8,1.5,0,3.8-1.2,7.4-4.7-.8,0-1.3.2-1.5.2ZM346.7,183.1c-3.4,2.1-5.2,2.9-5.9,2.9-1.4,0,.5-2.6,2.2-5.4,1.7-2.6,3.2-5.3,1-5.3s-2.9.6-5.9,2.1c-8.2,5.5-22.1,20.5-28.2,20.5h-.6c9.9-7.3,7-21.5,20.8-25.2,13.7-7.8,23-5.4,35.2-14.3-3.6,1.8-8.9,3.8-10.1,3.8s.4-.9,5.3-3.3c-.5,0-.8.2-1.1.2-3.3,0,21.7-9,22.9-9.1-10.3,1.4-26.9,10-29.1,10s-.3,0-.3-.3c.4-.3.4-.5,0-.5-1.2,0-6.3,1.7-11.5,3.4-5.1,1.7-10.3,3.5-11.4,3.5s-.4-.2.2-.6c-44.5,25.3-81.6,67.9-93.2,118.4,4.8,11,1.5,32,9.4,38.2,9,7.6-7.7,29.8-3.3,43.5,4.5,24.7,24,41.6,26.1,66.8,3.6,17.3,16.7,38.5,22.1,49.6,4.1,4.1,15.6,16.1,17.5,16.1s.3-1.8-2.7-6.6c-1.9-5.4-12.8-19.4-7.5-19.4s.6,0,.9,0c-6.5-6.6,14.4-4.8-.2-13.8-1.7-2.1-2.1-2.7-1.7-2.7s1.8.8,3.3,1.5c1.6.8,3.5,1.5,5,1.5,2.4,0,4-1.6,3-7.4.4.2.8.2,1,.2,2.5,0,1.6-4.8,1.8-9.6s1.4-9.6,8-9.6,1.6,0,2.5.2c15.3-8.3,2-31.2,19.5-39.6-.7-19-26.2-20-35.8-27.7-1.6.9-3.1,1.2-4.6,1.2s-3.2-.4-4.5-.8c-1.3-.4-2.5-.8-3.4-.8s-.4,0-.6,0c16.4-4.3,4.4-27.1-9.1-27.1h-.9c-1-9.9-6.1-6.1-6.7-14.3-.8.5-1.7.7-2.5.7-2.3,0-4.3-1.6-6.1-3.1-1.8-1.6-3.3-3.1-4.6-3.1s-2,1-2.8,4.1c.9-4.6.7-6.1-.3-6.1s-2.6,1.6-4.5,3.2c-1.8,1.6-3.9,3.2-5.5,3.2h-.5c-11-7.8,0-21.7-5.7-32.3,3.8-4.1,5.3-10.9,3.6-10.9s-2.5,1.7-5.2,6.3c-3.8-9.6,6.2-31.4,14.7-32.6.3,0,.5,0,.8,0,1.5,0,3,.8,4.3,2.4.8,4.4-1.1,13.8-.4,13.8s1.1-1.9,3-6.8c2.5-11.2,19.6-19.3,21.4-26.2q0,0,.2,0c2,0,14.7-11.2,20.3-12.4,2.2-2.2,3.7-2.9,4.8-2.9s1.9.9,2.4,1.8c.5.9.8,1.8,1.3,1.8s.8-.6,1.7-2.2c-2.9-5.7,4.6-11.2,2.5-11.2s-3,.8-7.6,2.6c-.8.4-1.1.5-1.3.5-.6,0,1.7-1.5,5-3s7.4-3,10.9-3,3.2.4,4.3,1.3c14.6-3.5,6.6-8.3,7.4-8.3h.2c4.1-2.5,2.9-11.7,9-17.4ZM281.4,221.6c-.2,0,.7-1.2,3.5-4.7,5.8-4.3,10.6-7.3,5.2-10.1,2.4-1,4.6-2.3,6.8-3.6,0,4.6-4,15.8-6,15.8s-.9-.7-1.1-2.1c1.2-2.2,1.3-3,.8-3-.8,0-2.9,1.9-5,3.9-2.1,1.8-4,3.8-4.1,3.8ZM286.7,224.2c-2.5,0-2.1-1.6,5.7-3.2,3.4-.5.8-.3,4.8-1.2-4,3.2-8.4,4.4-10.6,4.4ZM433.3,214.6c1.1-.2,2-.2,2.6-.2,2.7,0,1.5,1.1,0,2.3-1.6,1.1-3.6,2.3-2.5,2.3s2.5-.4,6.1-1.4c18.6-1.3-7.3-17.1-3.1-22.3l-1.1-.4c-7.6,9.7,5.1,9.9-2,19.8ZM425.6,215c1.3,0,3-1.5,4.8-5.7,2.5-2.9,1.4-3.3-1.2-4.7-7.3,1.9-6.6,10.5-3.6,10.5ZM490.6,244.9c-.3,0-.5,0-.7.2.8.2,1.5.4,2.3.4-.8-.4-1.2-.6-1.6-.6ZM617.2,268.4c1.6,3.5,2.5,4.9,2.5,4.9.7,0-11.9-30.5-17.1-36-27.1-44.5-71.5-78.5-122.2-91.2h0c-1.3,0,.2.7,2,1.3s4,1.3,4,1.3c0,0-1.4-.5-5.7-1.7-4.8-1.4-9.7-2.5-14.7-2.8-.8.3,20.6,8.8,35.1,13.2-4.8-1.5-9.8-2.8-11-2.8s0,.6,3.5,2.1c-4.2-1.2-6-1.8-6.2-1.8-.3,0,5.7,2,11.2,4,5.7,2,11,4,9.5,4s-1.4-.2-3-.5c4.8,2.6,6.5,3.7,6.2,3.7-.5,0-6.4-2.8-12.5-5.7-6-2.8-12.2-5.7-13-5.7s.8.9,4.9,3.4c5.7,2.5,11.3,4.9,9.7,4.9s-2.9-.5-7.2-1.7c9.4,4.8-6.7,2.9-1.2,9.4-3-2.8-4.2-3.8-4.5-3.8s.5,1.1,1.2,2.3c.8,1.1,1.3,2.3.7,2.3h-.2c6.6,7.2-4.6.8,3.4,7.2-6-2.7-16.3-7.3-11.7-7.3s3.3.3,6.7,1c-6.1-7.2-23.5-7.4-23.8-8.3-4.3.3-4.4,3.6-3.7,9.6,0,9.5-9.4,9.7-8.2,15.2,0,0,0,0,0,0,.2,0,.3,1.9.8,3.9.7,1.9,1.8,3.9,4.2,3.9s3-.6,5.1-2c2.9,5.3,5.6,7.2,7.6,7.2,3.1,0,5-4.2,4.8-8.1-3.4-1.9-7.8-17.5-2.9-17.5s1.7.4,2.9,1.2c-7.6,18.8,30.2,6.2,8.8,14.8,4.8,6.3-3,6-.8,13.7-3.7,1-7.7,2-11.3,2-5.3,0-9.3-2.3-8.9-10.2-6.6,3.5,6.6,15.3-6.5,15.3h-.8c-6.3,11.6-30,7.6-11.4,19.9,1,5.4-2.4,6.3-6.7,6.3s-2.4,0-3.6-.2c-1.2,0-2.5,0-3.6,0-4.9,0-8.4,1.2-5.4,8.9-2.2,7.9,2.9,11.4,9.1,11.4s16.8-4.9,17.4-13c4.1-6.1,9.2-8.7,14.6-8.7,8.5,0,17.4,6.4,23.3,14.3.5.8.8,1,1,1,.5,0,0-1.9-.2-3.8-.2-1.5-.2-3,.4-3.5-8.4-2.4-14.8-12.5-12-12.5s2.9,1.1,6.1,4.1h.5c5.3,0,9.4,4.1,12.6,8.3,3.3,4.1,5.7,8.3,7.9,8.3s1.7-.8,2.5-2.5c-.4-.6-1.3-2.2-1.8-3.8-.6-2-.6-4,2-4s2.5.4,4.4,1.1c6.4-1.7-4.1-18.4,4.4-18.4s1.9.2,3.2.6c0,2.9,1.2,4,2.5,4,2.5,0,4.9-3.5-1-4.5,2.3-2.2,3.6-3,4.5-3,3.3,0,.7,10.9,12.1,10.9,3.9,9.1-33.6.7-21.6,18.2,2.7,2,6.1,2.4,9.4,2.4s2,0,2.9,0c.9,0,1.9,0,2.7,0,5.8,0,10,1.4,7.4,13.5-3.1,2.3-6.6,3-10.2,3s-6.4-.6-9.5-1.1c-3.1-.6-6.1-1.1-8.9-1.1-4.2,0-7.6,1.4-9.7,6.3-11-4.5-25.5-4.7-24.1-18.4-19.2,2.7-39.3,1.3-53.4,13.1-.8,17.2-30.4,22.8-23.3,42.4-8.6,18.1,10.4,43.5,29.7,43.5s1.4,0,2.1,0c10.6,0,21.2-4.8,30.5-4.8s9.1,1.2,12.9,5c.8,0,1.6-.2,2.3-.2,14.4,0-4.6,22.9,12.6,26.8,15.6,16.2-9.6,32.9,2.7,48.4,1.3,12.2,7.4,22.3,7.4,34.2,1.6.2,3.1.3,4.7.3,19.9,0,32.3-17.3,44-30.4-3.6-19.6,27.8-23.5,17.1-45.4-5-24,23.7-38.3,22.1-62.3.3-3.4-.7-4.4-2.1-4.4s-3.5,1-5.5,2c-2.1,1-4.3,2-6.1,2s-4.1-1.6-4.3-6.9c-13.9-12.9-20.2-30.4-33.1-44.7,16.8,8.1,26.3,26.4,34,43,.7.2,1.3.3,2.1.3,13.7,0,32.7-32.7,12-40.6-1.1,3.1-2.6,4.2-4.4,4.2-3.1,0-6.7-3.8-9.2-7.4-2.5-3.8-3.9-7.5-2.5-7.5s3,1.5,6.6,5.5c4.1,2.5,8,3.2,12.2,3.2s8.2-.7,12.5-1c5.5,2.2,7.8,9.1,9.5,9.1s.7-.3.9-.9c4.3,10.4,9.3,28.8,13.9,33.8-2.4-15.8-2.9-32.6-7-48.2ZM564.6,246.6c-10.7-2.7-14.1-15.9-22.5-23.6,0-2.1,3-1.7,2.3-5.2,11.3,3.5,7.6,7,6.6,7.6,4.1,6.9,15.7,11.6,13.7,21.1ZM418.2,174.9c-10.3,3-11.7-.3-9.9,6,.8.6,2.2.8,3.6.8,5,0,11.8-2.8,6.3-6.8ZM569.1,434.5c13.5-11.4,15.2-25,15.8-38.7-6,11.8-23.9,24.8-15.8,38.7ZM507.8,250.7q0,0,0,.2c0,.2.2.2.2.2,0,0,0,0,0-.4ZM430,100.6c-133.3,0-241.3,108-241.3,241.3s108,241.3,241.3,241.3,241.3-108,241.3-241.3-108-241.3-241.3-241.3ZM430,583.2c-133.3,0-241.3-108-241.3-241.3s108-241.3,241.3-241.3,241.3,108,241.3,241.3-108,241.3-241.3,241.3Z"/>
    </g>
  </g>
</svg>