<?xml version="1.0" encoding="UTF-8"?>
<svg xmlns="http://www.w3.org/2000/svg" version="1.1" viewBox="0 0 800 800">
  <defs>
    <style>
      .cls-1 {
        fill: none;
        stroke: #00006c;
        stroke-linecap: round;
        stroke-linejoin: round;
        stroke-width: 66.7px;
      }
    </style>
  </defs>
  <!-- Generator: Adobe Illustrator 28.7.3, SVG Export Plug-In . SVG Version: 1.2.0 Build 164)  -->
  <g>
    <g id="Livello_1">
      <path class="cls-1" d="M400,483.3v66.7M233.3,334.3c15.7-1,35.1-1,60-1h213.3c24.9,0,44.3,0,60,1M233.3,334.3c-19.6,1.2-33.5,3.9-45.4,9.9-18.8,9.6-34.1,24.9-43.7,43.7-10.9,21.4-10.9,49.4-10.9,105.4v46.7c0,56,0,84,10.9,105.4,9.6,18.8,24.9,34.1,43.7,43.7,21.4,10.9,49.4,10.9,105.4,10.9h213.3c56,0,84,0,105.4-10.9,18.8-9.6,34.1-24.9,43.7-43.7,10.9-21.4,10.9-49.4,10.9-105.4v-46.7c0-56,0-84-10.9-105.4-9.6-18.8-24.9-34.1-43.7-43.7-11.9-6-25.8-8.7-45.4-9.9M233.3,334.3v-67.6c0-92,74.6-166.7,166.7-166.7s166.7,74.6,166.7,166.7v67.6"/>
    </g>
  </g>
</svg>