<?xml version="1.0" encoding="UTF-8"?>
<svg xmlns="http://www.w3.org/2000/svg" version="1.1" viewBox="0 0 800 800">
  <defs>
    <style>
      .cls-1 {
        fill: #0b6031;
        stroke: #92a59a;
        stroke-miterlimit: 10;
      }
    </style>
  </defs>
  <!-- Generator: Adobe Illustrator 28.7.4, SVG Export Plug-In . SVG Version: 1.2.0 Build 166)  -->
  <g>
    <g id="Livello_3">
      <g>
        <path class="cls-1" d="M657.3,75H142.7c-37.4,0-67.7,30.3-67.7,67.7v514.6c0,37.4,30.3,67.7,67.7,67.7h514.6c37.4,0,67.7-30.3,67.7-67.7V142.7c0-37.4-30.3-67.7-67.7-67.7ZM291.7,697.9h-149c-22.4,0-40.6-18.2-40.6-40.6v-149h189.6v189.6ZM291.7,494.8H102.1v-189.6h189.6v189.6ZM291.7,291.7H102.1v-149c0-22.4,18.2-40.6,40.6-40.6h149v189.6ZM494.8,697.9h-189.6v-189.6h189.6v189.6ZM494.8,494.8h-44.6l44.6-44.6v44.6ZM494.8,440.6l-4.8-4.8-54.2,54.2,4.8,4.8h-44.6l98.8-98.8v44.6ZM494.8,386.5l-4.8-4.8-108.3,108.3,4.8,4.8h-44.6l152.9-152.9v44.6ZM494.8,291.7h-1c-.7,4.6-1.6,9.1-3,13.5h3.9v27.1l-4.8-4.8-162.5,162.5,4.8,4.8h-27.1v-27.1l4.8,4.8,82.2-82.2c-3.5-2.5-7-5.1-10.5-7.6-.2-.2-.4-.3-.6-.5l-75.9,75.9v-44.6l4.8,4.8,52.9-52.9c-4.4-1.9-8.6-4-12.6-6.5l-45.1,45.1v-44.6l4.8,4.8,21-21c-3.1-3.3-6-6.8-8.6-10.5l-17.2,17.2v-44.6h3.9c-1.3-4.4-2.3-9-3-13.5h-1V102.1h189.6v189.6ZM697.9,657.3c0,22.4-18.2,40.6-40.6,40.6h-149v-189.6h189.6v149ZM697.9,494.8h-189.6v-189.6h189.6v189.6ZM697.9,291.7h-189.6V102.1h149c22.4,0,40.6,18.2,40.6,40.6v149Z"/>
        <polygon class="cls-1" points="455.6 318.2 479.8 318.2 451.3 283.1 471.3 283.1 444.8 250.1 463.1 250.1 437 216.8 454.5 216.8 429.7 183.8 445.9 183.8 400 119.4 354.1 183.8 370.3 183.8 345.5 216.8 363 216.8 336.9 250.1 355.2 250.1 328.7 283.1 348.7 283.1 320.2 318.2 344.4 318.2 377.1 318.4 378.3 355.3 420.8 355.3 419.6 318.4 455.6 318.2"/>
      </g>
    </g>
  </g>
</svg>